<svg width="1642" height="42" viewBox="0 0 1642 42" fill="none" xmlns="http://www.w3.org/2000/svg">
<path d="M49.0227 36V12.7273H58.3409C60.053 12.7273 61.4811 12.9811 62.625 13.4886C63.7689 13.9962 64.6288 14.7008 65.2045 15.6023C65.7803 16.4962 66.0682 17.5265 66.0682 18.6932C66.0682 19.6023 65.8864 20.4015 65.5227 21.0909C65.1591 21.7727 64.6591 22.3333 64.0227 22.7727C63.3939 23.2045 62.6742 23.5114 61.8636 23.6932V23.9205C62.75 23.9583 63.5795 24.2083 64.3523 24.6705C65.1326 25.1326 65.7652 25.7803 66.25 26.6136C66.7348 27.4394 66.9773 28.4242 66.9773 29.5682C66.9773 30.803 66.6705 31.9053 66.0568 32.875C65.4508 33.8371 64.553 34.5985 63.3636 35.1591C62.1742 35.7197 60.7083 36 58.9659 36H49.0227ZM53.9432 31.9773H57.9545C59.3258 31.9773 60.3258 31.7159 60.9545 31.1932C61.5833 30.6629 61.8977 29.9583 61.8977 29.0795C61.8977 28.4356 61.7424 27.8674 61.4318 27.375C61.1212 26.8826 60.678 26.4962 60.1023 26.2159C59.5341 25.9356 58.8561 25.7955 58.0682 25.7955H53.9432V31.9773ZM53.9432 22.4659H57.5909C58.2652 22.4659 58.8636 22.3485 59.3864 22.1136C59.9167 21.8712 60.3333 21.5303 60.6364 21.0909C60.947 20.6515 61.1023 20.125 61.1023 19.5114C61.1023 18.6705 60.803 17.9924 60.2045 17.4773C59.6136 16.9621 58.7727 16.7045 57.6818 16.7045H53.9432V22.4659ZM77.9744 36.3409C76.2093 36.3409 74.6828 35.9659 73.3949 35.2159C72.1146 34.4583 71.1259 33.4053 70.429 32.0568C69.732 30.7008 69.3835 29.1288 69.3835 27.3409C69.3835 25.5379 69.732 23.9621 70.429 22.6136C71.1259 21.2576 72.1146 20.2045 73.3949 19.4545C74.6828 18.697 76.2093 18.3182 77.9744 18.3182C79.7396 18.3182 81.2623 18.697 82.5426 19.4545C83.8305 20.2045 84.8229 21.2576 85.5199 22.6136C86.2169 23.9621 86.5653 25.5379 86.5653 27.3409C86.5653 29.1288 86.2169 30.7008 85.5199 32.0568C84.8229 33.4053 83.8305 34.4583 82.5426 35.2159C81.2623 35.9659 79.7396 36.3409 77.9744 36.3409ZM77.9972 32.5909C78.8002 32.5909 79.4706 32.3636 80.0085 31.9091C80.5464 31.447 80.9517 30.8182 81.2244 30.0227C81.5047 29.2273 81.6449 28.322 81.6449 27.3068C81.6449 26.2917 81.5047 25.3864 81.2244 24.5909C80.9517 23.7955 80.5464 23.1667 80.0085 22.7045C79.4706 22.2424 78.8002 22.0114 77.9972 22.0114C77.1866 22.0114 76.5047 22.2424 75.9517 22.7045C75.4063 23.1667 74.9934 23.7955 74.7131 24.5909C74.4403 25.3864 74.304 26.2917 74.304 27.3068C74.304 28.322 74.4403 29.2273 74.7131 30.0227C74.9934 30.8182 75.4063 31.447 75.9517 31.9091C76.5047 32.3636 77.1866 32.5909 77.9972 32.5909ZM94.6903 36.3295C93.5767 36.3295 92.5843 36.1364 91.7131 35.75C90.8419 35.3561 90.1525 34.7765 89.6449 34.0114C89.1449 33.2386 88.8949 32.2765 88.8949 31.125C88.8949 30.1553 89.0729 29.3409 89.429 28.6818C89.785 28.0227 90.2699 27.4924 90.8835 27.0909C91.4972 26.6894 92.1941 26.3864 92.9744 26.1818C93.7623 25.9773 94.5881 25.8333 95.4517 25.75C96.4669 25.6439 97.285 25.5455 97.9062 25.4545C98.5275 25.3561 98.9782 25.2121 99.2585 25.0227C99.5388 24.8333 99.679 24.553 99.679 24.1818V24.1136C99.679 23.3939 99.4517 22.8371 98.9972 22.4432C98.5502 22.0492 97.9138 21.8523 97.0881 21.8523C96.2169 21.8523 95.5237 22.0455 95.0085 22.4318C94.4934 22.8106 94.1525 23.2879 93.9858 23.8636L89.5085 23.5C89.7358 22.4394 90.1828 21.5227 90.8494 20.75C91.5161 19.9697 92.3759 19.3712 93.429 18.9545C94.4896 18.5303 95.7169 18.3182 97.1108 18.3182C98.0805 18.3182 99.0085 18.4318 99.8949 18.6591C100.789 18.8864 101.58 19.2386 102.27 19.7159C102.967 20.1932 103.516 20.8068 103.918 21.5568C104.319 22.2992 104.52 23.1894 104.52 24.2273V36H99.929V33.5795H99.7926C99.5123 34.125 99.1373 34.6061 98.6676 35.0227C98.1979 35.4318 97.6335 35.7538 96.9744 35.9886C96.3153 36.2159 95.554 36.3295 94.6903 36.3295ZM96.0767 32.9886C96.7888 32.9886 97.4176 32.8485 97.9631 32.5682C98.5085 32.2803 98.9366 31.8939 99.2472 31.4091C99.5578 30.9242 99.7131 30.375 99.7131 29.7614V27.9091C99.5616 28.0076 99.3532 28.0985 99.0881 28.1818C98.8305 28.2576 98.5388 28.3295 98.2131 28.3977C97.8873 28.4583 97.5616 28.5152 97.2358 28.5682C96.91 28.6136 96.6146 28.6553 96.3494 28.6932C95.7813 28.7765 95.285 28.9091 94.8608 29.0909C94.4366 29.2727 94.107 29.5189 93.8722 29.8295C93.6373 30.1326 93.5199 30.5114 93.5199 30.9659C93.5199 31.625 93.7585 32.1288 94.2358 32.4773C94.7206 32.8182 95.3343 32.9886 96.0767 32.9886ZM116.75 24.3636C116.75 21.5455 117.125 18.9508 117.875 16.5795C118.633 14.2083 119.788 12.0114 121.341 9.98864H125.966C125.375 10.7386 124.826 11.6553 124.318 12.7386C123.811 13.8144 123.367 14.9962 122.989 16.2841C122.61 17.572 122.314 18.9053 122.102 20.2841C121.89 21.6553 121.784 23.0152 121.784 24.3636C121.784 26.1591 121.966 27.9735 122.33 29.8068C122.701 31.6326 123.201 33.3295 123.83 34.8977C124.466 36.4659 125.178 37.75 125.966 38.75H121.341C119.788 36.7273 118.633 34.5303 117.875 32.1591C117.125 29.7879 116.75 27.1894 116.75 24.3636ZM137.855 36.5114C135.901 36.5038 134.219 36.0227 132.81 35.0682C131.408 34.1136 130.329 32.7311 129.571 30.9205C128.821 29.1098 128.45 26.9318 128.457 24.3864C128.457 21.8485 128.832 19.6856 129.582 17.8977C130.34 16.1098 131.42 14.75 132.821 13.8182C134.23 12.8788 135.908 12.4091 137.855 12.4091C139.802 12.4091 141.476 12.8788 142.878 13.8182C144.287 14.7576 145.37 16.1212 146.128 17.9091C146.885 19.6894 147.26 21.8485 147.253 24.3864C147.253 26.9394 146.874 29.1212 146.116 30.9318C145.366 32.7424 144.291 34.125 142.889 35.0795C141.488 36.0341 139.81 36.5114 137.855 36.5114ZM137.855 32.4318C139.188 32.4318 140.253 31.7614 141.048 30.4205C141.844 29.0795 142.238 27.0682 142.23 24.3864C142.23 22.6212 142.048 21.1515 141.685 19.9773C141.329 18.803 140.821 17.9205 140.162 17.3295C139.51 16.7386 138.741 16.4432 137.855 16.4432C136.529 16.4432 135.469 17.1061 134.673 18.4318C133.878 19.7576 133.476 21.7424 133.469 24.3864C133.469 26.1742 133.647 27.6667 134.003 28.8636C134.366 30.053 134.878 30.947 135.537 31.5455C136.196 32.1364 136.969 32.4318 137.855 32.4318ZM161.682 22.4432V26.2841H151.068V22.4432H161.682ZM165.105 36V32.4545L173.389 24.7841C174.094 24.1023 174.685 23.4886 175.162 22.9432C175.647 22.3977 176.014 21.8636 176.264 21.3409C176.514 20.8106 176.639 20.2386 176.639 19.625C176.639 18.9432 176.484 18.3561 176.173 17.8636C175.863 17.3636 175.438 16.9811 174.901 16.7159C174.363 16.4432 173.753 16.3068 173.071 16.3068C172.359 16.3068 171.738 16.4508 171.207 16.7386C170.677 17.0265 170.268 17.4394 169.98 17.9773C169.692 18.5152 169.548 19.1553 169.548 19.8977H164.878C164.878 18.375 165.223 17.053 165.912 15.9318C166.601 14.8106 167.567 13.9432 168.81 13.3295C170.052 12.7159 171.484 12.4091 173.105 12.4091C174.772 12.4091 176.223 12.7045 177.457 13.2955C178.7 13.8788 179.666 14.6894 180.355 15.7273C181.045 16.7652 181.389 17.9545 181.389 19.2955C181.389 20.1742 181.215 21.0417 180.866 21.8977C180.526 22.7538 179.916 23.7045 179.037 24.75C178.158 25.7879 176.92 27.0341 175.321 28.4886L171.923 31.8182V31.9773H181.696V36H165.105ZM193.761 36.3182C192.155 36.3182 190.723 36.0227 189.466 35.4318C188.216 34.8409 187.223 34.0265 186.489 32.9886C185.754 31.9508 185.371 30.7614 185.341 29.4205H190.114C190.167 30.322 190.545 31.053 191.25 31.6136C191.955 32.1742 192.792 32.4545 193.761 32.4545C194.534 32.4545 195.216 32.2841 195.807 31.9432C196.405 31.5947 196.871 31.1136 197.205 30.5C197.545 29.8788 197.716 29.1667 197.716 28.3636C197.716 27.5455 197.542 26.8258 197.193 26.2045C196.852 25.5833 196.379 25.0985 195.773 24.75C195.167 24.4015 194.473 24.2235 193.693 24.2159C193.011 24.2159 192.348 24.3561 191.705 24.6364C191.068 24.9167 190.572 25.2992 190.216 25.7841L185.841 25L186.943 12.7273H201.17V16.75H191L190.398 22.5795H190.534C190.943 22.0038 191.561 21.5265 192.386 21.1477C193.212 20.7689 194.136 20.5795 195.159 20.5795C196.561 20.5795 197.811 20.9091 198.909 21.5682C200.008 22.2273 200.875 23.1326 201.511 24.2841C202.148 25.428 202.462 26.7462 202.455 28.2386C202.462 29.8068 202.098 31.2008 201.364 32.4205C200.636 33.6326 199.617 34.5871 198.307 35.2841C197.004 35.9735 195.489 36.3182 193.761 36.3182ZM214.091 24.3636C214.091 27.1894 213.712 29.7879 212.955 32.1591C212.205 34.5303 211.053 36.7273 209.5 38.75H204.875C205.466 38 206.015 37.0833 206.523 36C207.03 34.9167 207.473 33.7348 207.852 32.4545C208.231 31.1667 208.527 29.8333 208.739 28.4545C208.951 27.0758 209.057 25.7121 209.057 24.3636C209.057 22.5682 208.871 20.7576 208.5 18.9318C208.136 17.0985 207.636 15.4015 207 13.8409C206.371 12.2727 205.663 10.9886 204.875 9.98864H209.5C211.053 12.0114 212.205 14.2083 212.955 16.5795C213.712 18.9508 214.091 21.5455 214.091 24.3636Z" fill="#454545"/>
<circle cx="18" cy="24" r="18" fill="#009966"/>
<path d="M286.023 11.7273H292.091L298.5 27.3636H298.773L305.182 11.7273H311.25V35H306.477V19.8523H306.284L300.261 34.8864H297.011L290.989 19.7955H290.795V35H286.023V11.7273ZM323.099 35.3409C321.334 35.3409 319.808 34.9659 318.52 34.2159C317.24 33.4583 316.251 32.4053 315.554 31.0568C314.857 29.7008 314.509 28.1288 314.509 26.3409C314.509 24.5379 314.857 22.9621 315.554 21.6136C316.251 20.2576 317.24 19.2045 318.52 18.4545C319.808 17.697 321.334 17.3182 323.099 17.3182C324.865 17.3182 326.387 17.697 327.668 18.4545C328.955 19.2045 329.948 20.2576 330.645 21.6136C331.342 22.9621 331.69 24.5379 331.69 26.3409C331.69 28.1288 331.342 29.7008 330.645 31.0568C329.948 32.4053 328.955 33.4583 327.668 34.2159C326.387 34.9659 324.865 35.3409 323.099 35.3409ZM323.122 31.5909C323.925 31.5909 324.596 31.3636 325.134 30.9091C325.671 30.447 326.077 29.8182 326.349 29.0227C326.63 28.2273 326.77 27.322 326.77 26.3068C326.77 25.2917 326.63 24.3864 326.349 23.5909C326.077 22.7955 325.671 22.1667 325.134 21.7045C324.596 21.2424 323.925 21.0114 323.122 21.0114C322.312 21.0114 321.63 21.2424 321.077 21.7045C320.531 22.1667 320.118 22.7955 319.838 23.5909C319.565 24.3864 319.429 25.2917 319.429 26.3068C319.429 27.322 319.565 28.2273 319.838 29.0227C320.118 29.8182 320.531 30.447 321.077 30.9091C321.63 31.3636 322.312 31.5909 323.122 31.5909ZM341.27 35.2841C339.944 35.2841 338.743 34.9432 337.668 34.2614C336.599 33.572 335.751 32.5606 335.122 31.2273C334.501 29.8864 334.19 28.2424 334.19 26.2955C334.19 24.2955 334.512 22.6326 335.156 21.3068C335.8 19.9735 336.656 18.9773 337.724 18.3182C338.8 17.6515 339.978 17.3182 341.259 17.3182C342.236 17.3182 343.05 17.4848 343.702 17.8182C344.361 18.1439 344.891 18.553 345.293 19.0455C345.702 19.5303 346.012 20.0076 346.224 20.4773H346.372V11.7273H351.202V35H346.429V32.2045H346.224C345.997 32.6894 345.675 33.1705 345.259 33.6477C344.849 34.1174 344.315 34.5076 343.656 34.8182C343.005 35.1288 342.209 35.2841 341.27 35.2841ZM342.804 31.4318C343.584 31.4318 344.243 31.2197 344.781 30.7955C345.327 30.3636 345.743 29.7614 346.031 28.9886C346.327 28.2159 346.474 27.3106 346.474 26.2727C346.474 25.2348 346.33 24.3333 346.043 23.5682C345.755 22.803 345.338 22.2121 344.793 21.7955C344.247 21.3788 343.584 21.1705 342.804 21.1705C342.009 21.1705 341.338 21.3864 340.793 21.8182C340.247 22.25 339.834 22.8485 339.554 23.6136C339.274 24.3788 339.134 25.2652 339.134 26.2727C339.134 27.2879 339.274 28.1856 339.554 28.9659C339.842 29.7386 340.255 30.3447 340.793 30.7841C341.338 31.2159 342.009 31.4318 342.804 31.4318ZM363.136 35.3409C361.341 35.3409 359.795 34.9773 358.5 34.25C357.212 33.5152 356.22 32.4773 355.523 31.1364C354.826 29.7879 354.477 28.1932 354.477 26.3523C354.477 24.5568 354.826 22.9811 355.523 21.625C356.22 20.2689 357.201 19.2121 358.466 18.4545C359.739 17.697 361.231 17.3182 362.943 17.3182C364.095 17.3182 365.167 17.5038 366.159 17.875C367.159 18.2386 368.03 18.7879 368.773 19.5227C369.523 20.2576 370.106 21.1818 370.523 22.2955C370.939 23.4015 371.148 24.697 371.148 26.1818V27.5114H356.409V24.5114H366.591C366.591 23.8144 366.439 23.197 366.136 22.6591C365.833 22.1212 365.413 21.7008 364.875 21.3977C364.345 21.0871 363.727 20.9318 363.023 20.9318C362.288 20.9318 361.636 21.1023 361.068 21.4432C360.508 21.7765 360.068 22.2273 359.75 22.7955C359.432 23.3561 359.269 23.9811 359.261 24.6705V27.5227C359.261 28.3864 359.42 29.1326 359.739 29.7614C360.064 30.3902 360.523 30.875 361.114 31.2159C361.705 31.5568 362.405 31.7273 363.216 31.7273C363.754 31.7273 364.246 31.6515 364.693 31.5C365.14 31.3485 365.523 31.1212 365.841 30.8182C366.159 30.5152 366.402 30.1439 366.568 29.7045L371.045 30C370.818 31.0758 370.352 32.0152 369.648 32.8182C368.951 33.6136 368.049 34.2348 366.943 34.6818C365.845 35.1212 364.576 35.3409 363.136 35.3409ZM374.307 35V17.5455H379V20.5909H379.182C379.5 19.5076 380.034 18.6894 380.784 18.1364C381.534 17.5758 382.398 17.2955 383.375 17.2955C383.617 17.2955 383.879 17.3106 384.159 17.3409C384.439 17.3712 384.686 17.4129 384.898 17.4659V21.7614C384.67 21.6932 384.356 21.6326 383.955 21.5795C383.553 21.5265 383.186 21.5 382.852 21.5C382.14 21.5 381.504 21.6553 380.943 21.9659C380.39 22.2689 379.951 22.6932 379.625 23.2386C379.307 23.7841 379.148 24.4129 379.148 25.125V35H374.307ZM391.878 35.3295C390.764 35.3295 389.772 35.1364 388.901 34.75C388.029 34.3561 387.34 33.7765 386.832 33.0114C386.332 32.2386 386.082 31.2765 386.082 30.125C386.082 29.1553 386.26 28.3409 386.616 27.6818C386.973 27.0227 387.457 26.4924 388.071 26.0909C388.685 25.6894 389.382 25.3864 390.162 25.1818C390.95 24.9773 391.776 24.8333 392.639 24.75C393.654 24.6439 394.473 24.5455 395.094 24.4545C395.715 24.3561 396.166 24.2121 396.446 24.0227C396.726 23.8333 396.866 23.553 396.866 23.1818V23.1136C396.866 22.3939 396.639 21.8371 396.185 21.4432C395.738 21.0492 395.101 20.8523 394.276 20.8523C393.404 20.8523 392.711 21.0455 392.196 21.4318C391.681 21.8106 391.34 22.2879 391.173 22.8636L386.696 22.5C386.923 21.4394 387.37 20.5227 388.037 19.75C388.704 18.9697 389.563 18.3712 390.616 17.9545C391.677 17.5303 392.904 17.3182 394.298 17.3182C395.268 17.3182 396.196 17.4318 397.082 17.6591C397.976 17.8864 398.768 18.2386 399.457 18.7159C400.154 19.1932 400.704 19.8068 401.105 20.5568C401.507 21.2992 401.707 22.1894 401.707 23.2273V35H397.116V32.5795H396.98C396.7 33.125 396.325 33.6061 395.855 34.0227C395.385 34.4318 394.821 34.7538 394.162 34.9886C393.503 35.2159 392.741 35.3295 391.878 35.3295ZM393.264 31.9886C393.976 31.9886 394.605 31.8485 395.151 31.5682C395.696 31.2803 396.124 30.8939 396.435 30.4091C396.745 29.9242 396.901 29.375 396.901 28.7614V26.9091C396.749 27.0076 396.541 27.0985 396.276 27.1818C396.018 27.2576 395.726 27.3295 395.401 27.3977C395.075 27.4583 394.749 27.5152 394.423 27.5682C394.098 27.6136 393.802 27.6553 393.537 27.6932C392.969 27.7765 392.473 27.9091 392.048 28.0909C391.624 28.2727 391.295 28.5189 391.06 28.8295C390.825 29.1326 390.707 29.5114 390.707 29.9659C390.707 30.625 390.946 31.1288 391.423 31.4773C391.908 31.8182 392.522 31.9886 393.264 31.9886ZM411.895 35.2841C410.569 35.2841 409.368 34.9432 408.293 34.2614C407.224 33.572 406.376 32.5606 405.747 31.2273C405.126 29.8864 404.815 28.2424 404.815 26.2955C404.815 24.2955 405.137 22.6326 405.781 21.3068C406.425 19.9735 407.281 18.9773 408.349 18.3182C409.425 17.6515 410.603 17.3182 411.884 17.3182C412.861 17.3182 413.675 17.4848 414.327 17.8182C414.986 18.1439 415.516 18.553 415.918 19.0455C416.327 19.5303 416.637 20.0076 416.849 20.4773H416.997V11.7273H421.827V35H417.054V32.2045H416.849C416.622 32.6894 416.3 33.1705 415.884 33.6477C415.474 34.1174 414.94 34.5076 414.281 34.8182C413.63 35.1288 412.834 35.2841 411.895 35.2841ZM413.429 31.4318C414.209 31.4318 414.868 31.2197 415.406 30.7955C415.952 30.3636 416.368 29.7614 416.656 28.9886C416.952 28.2159 417.099 27.3106 417.099 26.2727C417.099 25.2348 416.955 24.3333 416.668 23.5682C416.38 22.803 415.963 22.2121 415.418 21.7955C414.872 21.3788 414.209 21.1705 413.429 21.1705C412.634 21.1705 411.963 21.3864 411.418 21.8182C410.872 22.25 410.459 22.8485 410.179 23.6136C409.899 24.3788 409.759 25.2652 409.759 26.2727C409.759 27.2879 409.899 28.1856 410.179 28.9659C410.467 29.7386 410.88 30.3447 411.418 30.7841C411.963 31.2159 412.634 31.4318 413.429 31.4318ZM430.784 35.3295C429.67 35.3295 428.678 35.1364 427.807 34.75C426.936 34.3561 426.246 33.7765 425.739 33.0114C425.239 32.2386 424.989 31.2765 424.989 30.125C424.989 29.1553 425.167 28.3409 425.523 27.6818C425.879 27.0227 426.364 26.4924 426.977 26.0909C427.591 25.6894 428.288 25.3864 429.068 25.1818C429.856 24.9773 430.682 24.8333 431.545 24.75C432.561 24.6439 433.379 24.5455 434 24.4545C434.621 24.3561 435.072 24.2121 435.352 24.0227C435.633 23.8333 435.773 23.553 435.773 23.1818V23.1136C435.773 22.3939 435.545 21.8371 435.091 21.4432C434.644 21.0492 434.008 20.8523 433.182 20.8523C432.311 20.8523 431.617 21.0455 431.102 21.4318C430.587 21.8106 430.246 22.2879 430.08 22.8636L425.602 22.5C425.83 21.4394 426.277 20.5227 426.943 19.75C427.61 18.9697 428.47 18.3712 429.523 17.9545C430.583 17.5303 431.811 17.3182 433.205 17.3182C434.174 17.3182 435.102 17.4318 435.989 17.6591C436.883 17.8864 437.674 18.2386 438.364 18.7159C439.061 19.1932 439.61 19.8068 440.011 20.5568C440.413 21.2992 440.614 22.1894 440.614 23.2273V35H436.023V32.5795H435.886C435.606 33.125 435.231 33.6061 434.761 34.0227C434.292 34.4318 433.727 34.7538 433.068 34.9886C432.409 35.2159 431.648 35.3295 430.784 35.3295ZM432.17 31.9886C432.883 31.9886 433.511 31.8485 434.057 31.5682C434.602 31.2803 435.03 30.8939 435.341 30.4091C435.652 29.9242 435.807 29.375 435.807 28.7614V26.9091C435.655 27.0076 435.447 27.0985 435.182 27.1818C434.924 27.2576 434.633 27.3295 434.307 27.3977C433.981 27.4583 433.655 27.5152 433.33 27.5682C433.004 27.6136 432.708 27.6553 432.443 27.6932C431.875 27.7765 431.379 27.9091 430.955 28.0909C430.53 28.2727 430.201 28.5189 429.966 28.8295C429.731 29.1326 429.614 29.5114 429.614 29.9659C429.614 30.625 429.852 31.1288 430.33 31.4773C430.814 31.8182 431.428 31.9886 432.17 31.9886ZM452.844 23.3636C452.844 20.5455 453.219 17.9508 453.969 15.5795C454.726 13.2083 455.882 11.0114 457.435 8.98864H462.06C461.469 9.73864 460.92 10.6553 460.412 11.7386C459.904 12.8144 459.461 13.9962 459.082 15.2841C458.704 16.572 458.408 17.9053 458.196 19.2841C457.984 20.6553 457.878 22.0152 457.878 23.3636C457.878 25.1591 458.06 26.9735 458.423 28.8068C458.795 30.6326 459.295 32.3295 459.923 33.8977C460.56 35.4659 461.272 36.75 462.06 37.75H457.435C455.882 35.7273 454.726 33.5303 453.969 31.1591C453.219 28.7879 452.844 26.1894 452.844 23.3636ZM481.812 25.5114L465.812 32.5568V27.9545L476.767 23.5568L476.619 23.7955V23.2273L476.767 23.4659L465.812 19.0682V14.4659L481.812 21.5114V25.5114ZM486.574 35V31.4545L494.858 23.7841C495.563 23.1023 496.153 22.4886 496.631 21.9432C497.116 21.3977 497.483 20.8636 497.733 20.3409C497.983 19.8106 498.108 19.2386 498.108 18.625C498.108 17.9432 497.953 17.3561 497.642 16.8636C497.331 16.3636 496.907 15.9811 496.369 15.7159C495.831 15.4432 495.222 15.3068 494.54 15.3068C493.828 15.3068 493.206 15.4508 492.676 15.7386C492.146 16.0265 491.737 16.4394 491.449 16.9773C491.161 17.5152 491.017 18.1553 491.017 18.8977H486.347C486.347 17.375 486.691 16.053 487.381 14.9318C488.07 13.8106 489.036 12.9432 490.278 12.3295C491.521 11.7159 492.953 11.4091 494.574 11.4091C496.241 11.4091 497.691 11.7045 498.926 12.2955C500.169 12.8788 501.134 13.6894 501.824 14.7273C502.513 15.7652 502.858 16.9545 502.858 18.2955C502.858 19.1742 502.684 20.0417 502.335 20.8977C501.994 21.7538 501.384 22.7045 500.506 23.75C499.627 24.7879 498.388 26.0341 496.79 27.4886L493.392 30.8182V30.9773H503.165V35H486.574ZM515.23 35.3182C513.624 35.3182 512.192 35.0227 510.935 34.4318C509.685 33.8409 508.692 33.0265 507.957 31.9886C507.223 30.9508 506.84 29.7614 506.81 28.4205H511.582C511.635 29.322 512.014 30.053 512.719 30.6136C513.423 31.1742 514.26 31.4545 515.23 31.4545C516.003 31.4545 516.685 31.2841 517.276 30.9432C517.874 30.5947 518.34 30.1136 518.673 29.5C519.014 28.8788 519.185 28.1667 519.185 27.3636C519.185 26.5455 519.01 25.8258 518.662 25.2045C518.321 24.5833 517.848 24.0985 517.241 23.75C516.635 23.4015 515.942 23.2235 515.162 23.2159C514.48 23.2159 513.817 23.3561 513.173 23.6364C512.537 23.9167 512.041 24.2992 511.685 24.7841L507.31 24L508.412 11.7273H522.639V15.75H512.469L511.866 21.5795H512.003C512.412 21.0038 513.029 20.5265 513.855 20.1477C514.681 19.7689 515.605 19.5795 516.628 19.5795C518.029 19.5795 519.279 19.9091 520.378 20.5682C521.476 21.2273 522.344 22.1326 522.98 23.2841C523.616 24.428 523.931 25.7462 523.923 27.2386C523.931 28.8068 523.567 30.2008 522.832 31.4205C522.105 32.6326 521.086 33.5871 519.776 34.2841C518.473 34.9735 516.957 35.3182 515.23 35.3182ZM538.276 21.4432V25.2841H527.662V21.4432H538.276ZM550.855 35.3182C549.249 35.3182 547.817 35.0227 546.56 34.4318C545.31 33.8409 544.317 33.0265 543.582 31.9886C542.848 30.9508 542.465 29.7614 542.435 28.4205H547.207C547.26 29.322 547.639 30.053 548.344 30.6136C549.048 31.1742 549.885 31.4545 550.855 31.4545C551.628 31.4545 552.31 31.2841 552.901 30.9432C553.499 30.5947 553.965 30.1136 554.298 29.5C554.639 28.8788 554.81 28.1667 554.81 27.3636C554.81 26.5455 554.635 25.8258 554.287 25.2045C553.946 24.5833 553.473 24.0985 552.866 23.75C552.26 23.4015 551.567 23.2235 550.787 23.2159C550.105 23.2159 549.442 23.3561 548.798 23.6364C548.162 23.9167 547.666 24.2992 547.31 24.7841L542.935 24L544.037 11.7273H558.264V15.75H548.094L547.491 21.5795H547.628C548.037 21.0038 548.654 20.5265 549.48 20.1477C550.306 19.7689 551.23 19.5795 552.253 19.5795C553.654 19.5795 554.904 19.9091 556.003 20.5682C557.101 21.2273 557.969 22.1326 558.605 23.2841C559.241 24.428 559.556 25.7462 559.548 27.2386C559.556 28.8068 559.192 30.2008 558.457 31.4205C557.73 32.6326 556.711 33.5871 555.401 34.2841C554.098 34.9735 552.582 35.3182 550.855 35.3182ZM572.105 35.5114C570.151 35.5038 568.469 35.0227 567.06 34.0682C565.658 33.1136 564.579 31.7311 563.821 29.9205C563.071 28.1098 562.7 25.9318 562.707 23.3864C562.707 20.8485 563.082 18.6856 563.832 16.8977C564.59 15.1098 565.67 13.75 567.071 12.8182C568.48 11.8788 570.158 11.4091 572.105 11.4091C574.052 11.4091 575.726 11.8788 577.128 12.8182C578.537 13.7576 579.62 15.1212 580.378 16.9091C581.135 18.6894 581.51 20.8485 581.503 23.3864C581.503 25.9394 581.124 28.1212 580.366 29.9318C579.616 31.7424 578.541 33.125 577.139 34.0795C575.738 35.0341 574.06 35.5114 572.105 35.5114ZM572.105 31.4318C573.438 31.4318 574.503 30.7614 575.298 29.4205C576.094 28.0795 576.488 26.0682 576.48 23.3864C576.48 21.6212 576.298 20.1515 575.935 18.9773C575.579 17.803 575.071 16.9205 574.412 16.3295C573.76 15.7386 572.991 15.4432 572.105 15.4432C570.779 15.4432 569.719 16.1061 568.923 17.4318C568.128 18.7576 567.726 20.7424 567.719 23.3864C567.719 25.1742 567.897 26.6667 568.253 27.8636C568.616 29.053 569.128 29.947 569.787 30.5455C570.446 31.1364 571.219 31.4318 572.105 31.4318ZM593.216 23.3636C593.216 26.1894 592.837 28.7879 592.08 31.1591C591.33 33.5303 590.178 35.7273 588.625 37.75H584C584.591 37 585.14 36.0833 585.648 35C586.155 33.9167 586.598 32.7348 586.977 31.4545C587.356 30.1667 587.652 28.8333 587.864 27.4545C588.076 26.0758 588.182 24.7121 588.182 23.3636C588.182 21.5682 587.996 19.7576 587.625 17.9318C587.261 16.0985 586.761 14.4015 586.125 12.8409C585.496 11.2727 584.788 9.98864 584 8.98864H588.625C590.178 11.0114 591.33 13.2083 592.08 15.5795C592.837 17.9508 593.216 20.5455 593.216 23.3636Z" fill="#454545"/>
<circle cx="254" cy="22" r="18" fill="#F4E32E"/>
<path d="M662.023 33V9.72727H671.205C672.962 9.72727 674.462 10.0417 675.705 10.6705C676.955 11.2917 677.905 12.1742 678.557 13.3182C679.216 14.4545 679.545 15.7917 679.545 17.3295C679.545 18.875 679.212 20.2045 678.545 21.3182C677.879 22.4242 676.913 23.2727 675.648 23.8636C674.39 24.4545 672.867 24.75 671.08 24.75H664.932V20.7955H670.284C671.223 20.7955 672.004 20.6667 672.625 20.4091C673.246 20.1515 673.708 19.7652 674.011 19.25C674.322 18.7348 674.477 18.0947 674.477 17.3295C674.477 16.5568 674.322 15.9053 674.011 15.375C673.708 14.8447 673.242 14.4432 672.614 14.1705C671.992 13.8902 671.208 13.75 670.261 13.75H666.943V33H662.023ZM674.591 22.4091L680.375 33H674.943L669.284 22.4091H674.591ZM694.125 25.5682V15.5455H698.966V33H694.318V29.8295H694.136C693.742 30.8523 693.087 31.6742 692.17 32.2955C691.261 32.9167 690.152 33.2273 688.841 33.2273C687.674 33.2273 686.648 32.9621 685.761 32.4318C684.875 31.9015 684.182 31.1477 683.682 30.1705C683.189 29.1932 682.939 28.0227 682.932 26.6591V15.5455H687.773V25.7955C687.78 26.8258 688.057 27.6402 688.602 28.2386C689.148 28.8371 689.879 29.1364 690.795 29.1364C691.379 29.1364 691.924 29.0038 692.432 28.7386C692.939 28.4659 693.348 28.0644 693.659 27.5341C693.977 27.0038 694.133 26.3485 694.125 25.5682ZM702.838 33V15.5455H707.679V33H702.838ZM705.27 13.2955C704.55 13.2955 703.933 13.0568 703.418 12.5795C702.91 12.0947 702.656 11.5152 702.656 10.8409C702.656 10.1742 702.91 9.60227 703.418 9.125C703.933 8.64015 704.55 8.39773 705.27 8.39773C705.99 8.39773 706.603 8.64015 707.111 9.125C707.626 9.60227 707.884 10.1742 707.884 10.8409C707.884 11.5152 707.626 12.0947 707.111 12.5795C706.603 13.0568 705.99 13.2955 705.27 13.2955ZM711.557 33V15.5455H716.17V18.625H716.375C716.739 17.6023 717.345 16.7955 718.193 16.2045C719.042 15.6136 720.057 15.3182 721.239 15.3182C722.436 15.3182 723.455 15.6174 724.295 16.2159C725.136 16.8068 725.697 17.6098 725.977 18.625H726.159C726.515 17.625 727.159 16.8258 728.091 16.2273C729.03 15.6212 730.14 15.3182 731.42 15.3182C733.049 15.3182 734.371 15.8371 735.386 16.875C736.409 17.9053 736.92 19.3674 736.92 21.2614V33H732.091V22.2159C732.091 21.2462 731.833 20.5189 731.318 20.0341C730.803 19.5492 730.159 19.3068 729.386 19.3068C728.508 19.3068 727.822 19.5871 727.33 20.1477C726.837 20.7008 726.591 21.4318 726.591 22.3409V33H721.898V22.1136C721.898 21.2576 721.652 20.5758 721.159 20.0682C720.674 19.5606 720.034 19.3068 719.239 19.3068C718.701 19.3068 718.216 19.4432 717.784 19.7159C717.36 19.9811 717.023 20.3561 716.773 20.8409C716.523 21.3182 716.398 21.8788 716.398 22.5227V33H711.557ZM749.219 21.3636C749.219 18.5455 749.594 15.9508 750.344 13.5795C751.101 11.2083 752.257 9.01136 753.81 6.98864H758.435C757.844 7.73864 757.295 8.6553 756.787 9.73864C756.279 10.8144 755.836 11.9962 755.457 13.2841C755.079 14.572 754.783 15.9053 754.571 17.2841C754.359 18.6553 754.253 20.0152 754.253 21.3636C754.253 23.1591 754.435 24.9735 754.798 26.8068C755.17 28.6326 755.67 30.3295 756.298 31.8977C756.935 33.4659 757.647 34.75 758.435 35.75H753.81C752.257 33.7273 751.101 31.5303 750.344 29.1591C749.594 26.7879 749.219 24.1894 749.219 21.3636ZM778.188 23.5114L762.188 30.5568V25.9545L773.142 21.5568L772.994 21.7955V21.2273L773.142 21.4659L762.188 17.0682V12.4659L778.188 19.5114V23.5114ZM791.449 33.3182C789.843 33.3182 788.411 33.0227 787.153 32.4318C785.903 31.8409 784.911 31.0265 784.176 29.9886C783.441 28.9508 783.059 27.7614 783.028 26.4205H787.801C787.854 27.322 788.233 28.053 788.938 28.6136C789.642 29.1742 790.479 29.4545 791.449 29.4545C792.222 29.4545 792.903 29.2841 793.494 28.9432C794.093 28.5947 794.559 28.1136 794.892 27.5C795.233 26.8788 795.403 26.1667 795.403 25.3636C795.403 24.5455 795.229 23.8258 794.881 23.2045C794.54 22.5833 794.066 22.0985 793.46 21.75C792.854 21.4015 792.161 21.2235 791.381 21.2159C790.699 21.2159 790.036 21.3561 789.392 21.6364C788.756 21.9167 788.259 22.2992 787.903 22.7841L783.528 22L784.631 9.72727H798.858V13.75H788.688L788.085 19.5795H788.222C788.631 19.0038 789.248 18.5265 790.074 18.1477C790.9 17.7689 791.824 17.5795 792.847 17.5795C794.248 17.5795 795.498 17.9091 796.597 18.5682C797.695 19.2273 798.562 20.1326 799.199 21.2841C799.835 22.428 800.15 23.7462 800.142 25.2386C800.15 26.8068 799.786 28.2008 799.051 29.4205C798.324 30.6326 797.305 31.5871 795.994 32.2841C794.691 32.9735 793.176 33.3182 791.449 33.3182ZM812.699 33.5114C810.744 33.5038 809.063 33.0227 807.653 32.0682C806.252 31.1136 805.172 29.7311 804.415 27.9205C803.665 26.1098 803.294 23.9318 803.301 21.3864C803.301 18.8485 803.676 16.6856 804.426 14.8977C805.184 13.1098 806.263 11.75 807.665 10.8182C809.074 9.87879 810.752 9.40909 812.699 9.40909C814.646 9.40909 816.32 9.87879 817.722 10.8182C819.131 11.7576 820.214 13.1212 820.972 14.9091C821.729 16.6894 822.104 18.8485 822.097 21.3864C822.097 23.9394 821.718 26.1212 820.96 27.9318C820.21 29.7424 819.134 31.125 817.733 32.0795C816.331 33.0341 814.653 33.5114 812.699 33.5114ZM812.699 29.4318C814.032 29.4318 815.097 28.7614 815.892 27.4205C816.688 26.0795 817.081 24.0682 817.074 21.3864C817.074 19.6212 816.892 18.1515 816.528 16.9773C816.172 15.803 815.665 14.9205 815.006 14.3295C814.354 13.7386 813.585 13.4432 812.699 13.4432C811.373 13.4432 810.313 14.1061 809.517 15.4318C808.722 16.7576 808.32 18.7424 808.312 21.3864C808.312 23.1742 808.491 24.6667 808.847 25.8636C809.21 27.053 809.722 27.947 810.381 28.5455C811.04 29.1364 811.812 29.4318 812.699 29.4318ZM836.526 19.4432V23.2841H825.912V19.4432H836.526ZM840.588 33L850.236 13.9091V13.75H838.997V9.72727H855.327V13.8068L845.668 33H840.588ZM866.886 33.3182C865.28 33.3182 863.848 33.0227 862.591 32.4318C861.341 31.8409 860.348 31.0265 859.614 29.9886C858.879 28.9508 858.496 27.7614 858.466 26.4205H863.239C863.292 27.322 863.67 28.053 864.375 28.6136C865.08 29.1742 865.917 29.4545 866.886 29.4545C867.659 29.4545 868.341 29.2841 868.932 28.9432C869.53 28.5947 869.996 28.1136 870.33 27.5C870.67 26.8788 870.841 26.1667 870.841 25.3636C870.841 24.5455 870.667 23.8258 870.318 23.2045C869.977 22.5833 869.504 22.0985 868.898 21.75C868.292 21.4015 867.598 21.2235 866.818 21.2159C866.136 21.2159 865.473 21.3561 864.83 21.6364C864.193 21.9167 863.697 22.2992 863.341 22.7841L858.966 22L860.068 9.72727H874.295V13.75H864.125L863.523 19.5795H863.659C864.068 19.0038 864.686 18.5265 865.511 18.1477C866.337 17.7689 867.261 17.5795 868.284 17.5795C869.686 17.5795 870.936 17.9091 872.034 18.5682C873.133 19.2273 874 20.1326 874.636 21.2841C875.273 22.428 875.587 23.7462 875.58 25.2386C875.587 26.8068 875.223 28.2008 874.489 29.4205C873.761 30.6326 872.742 31.5871 871.432 32.2841C870.129 32.9735 868.614 33.3182 866.886 33.3182ZM887.216 21.3636C887.216 24.1894 886.837 26.7879 886.08 29.1591C885.33 31.5303 884.178 33.7273 882.625 35.75H878C878.591 35 879.14 34.0833 879.648 33C880.155 31.9167 880.598 30.7348 880.977 29.4545C881.356 28.1667 881.652 26.8333 881.864 25.4545C882.076 24.0758 882.182 22.7121 882.182 21.3636C882.182 19.5682 881.996 17.7576 881.625 15.9318C881.261 14.0985 880.761 12.4015 880.125 10.8409C879.496 9.27273 878.788 7.98864 878 6.98864H882.625C884.178 9.01136 885.33 11.2083 886.08 13.5795C886.837 15.9508 887.216 18.5455 887.216 21.3636Z" fill="#454545"/>
<circle cx="633" cy="20" r="18" fill="#F5BB09"/>
<path d="M962.023 6.72727H968.091L974.5 22.3636H974.773L981.182 6.72727H987.25V30H982.477V14.8523H982.284L976.261 29.8864H973.011L966.989 14.7955H966.795V30H962.023V6.72727ZM1002.41 22.5682V12.5455H1007.25V30H1002.6V26.8295H1002.42C1002.02 27.8523 1001.37 28.6742 1000.45 29.2955C999.543 29.9167 998.433 30.2273 997.122 30.2273C995.955 30.2273 994.929 29.9621 994.043 29.4318C993.156 28.9015 992.463 28.1477 991.963 27.1705C991.471 26.1932 991.221 25.0227 991.213 23.6591V12.5455H996.054V22.7955C996.062 23.8258 996.338 24.6402 996.884 25.2386C997.429 25.8371 998.16 26.1364 999.077 26.1364C999.66 26.1364 1000.21 26.0038 1000.71 25.7386C1001.22 25.4659 1001.63 25.0644 1001.94 24.5341C1002.26 24.0038 1002.41 23.3485 1002.41 22.5682ZM1011.12 30V12.5455H1015.96V30H1011.12ZM1013.55 10.2955C1012.83 10.2955 1012.21 10.0568 1011.7 9.57954C1011.19 9.0947 1010.94 8.51515 1010.94 7.84091C1010.94 7.17424 1011.19 6.60227 1011.7 6.125C1012.21 5.64015 1012.83 5.39773 1013.55 5.39773C1014.27 5.39773 1014.88 5.64015 1015.39 6.125C1015.91 6.60227 1016.16 7.17424 1016.16 7.84091C1016.16 8.51515 1015.91 9.0947 1015.39 9.57954C1014.88 10.0568 1014.27 10.2955 1013.55 10.2955ZM1029.12 12.5455V16.1818H1018.61V12.5455H1029.12ZM1021 8.36364H1025.84V24.6364C1025.84 25.0833 1025.91 25.4318 1026.04 25.6818C1026.18 25.9242 1026.37 26.0947 1026.61 26.1932C1026.86 26.2917 1027.15 26.3409 1027.47 26.3409C1027.7 26.3409 1027.93 26.322 1028.16 26.2841C1028.38 26.2386 1028.56 26.2045 1028.68 26.1818L1029.44 29.7841C1029.2 29.8598 1028.86 29.947 1028.42 30.0455C1027.98 30.1515 1027.44 30.2159 1026.82 30.2386C1025.65 30.2841 1024.63 30.1288 1023.75 29.7727C1022.88 29.4167 1022.2 28.8636 1021.71 28.1136C1021.23 27.3636 1020.99 26.4167 1021 25.2727V8.36364ZM1039.97 30.3409C1038.21 30.3409 1036.68 29.9659 1035.39 29.2159C1034.11 28.4583 1033.13 27.4053 1032.43 26.0568C1031.73 24.7008 1031.38 23.1288 1031.38 21.3409C1031.38 19.5379 1031.73 17.9621 1032.43 16.6136C1033.13 15.2576 1034.11 14.2045 1035.39 13.4545C1036.68 12.697 1038.21 12.3182 1039.97 12.3182C1041.74 12.3182 1043.26 12.697 1044.54 13.4545C1045.83 14.2045 1046.82 15.2576 1047.52 16.6136C1048.22 17.9621 1048.57 19.5379 1048.57 21.3409C1048.57 23.1288 1048.22 24.7008 1047.52 26.0568C1046.82 27.4053 1045.83 28.4583 1044.54 29.2159C1043.26 29.9659 1041.74 30.3409 1039.97 30.3409ZM1040 26.5909C1040.8 26.5909 1041.47 26.3636 1042.01 25.9091C1042.55 25.447 1042.95 24.8182 1043.22 24.0227C1043.5 23.2273 1043.64 22.322 1043.64 21.3068C1043.64 20.2917 1043.5 19.3864 1043.22 18.5909C1042.95 17.7955 1042.55 17.1667 1042.01 16.7045C1041.47 16.2424 1040.8 16.0114 1040 16.0114C1039.19 16.0114 1038.5 16.2424 1037.95 16.7045C1037.41 17.1667 1036.99 17.7955 1036.71 18.5909C1036.44 19.3864 1036.3 20.2917 1036.3 21.3068C1036.3 22.322 1036.44 23.2273 1036.71 24.0227C1036.99 24.8182 1037.41 25.447 1037.95 25.9091C1038.5 26.3636 1039.19 26.5909 1040 26.5909ZM1059.21 30V6.72727H1068.39C1070.15 6.72727 1071.65 7.04167 1072.89 7.67045C1074.14 8.29167 1075.09 9.17424 1075.74 10.3182C1076.4 11.4545 1076.73 12.7917 1076.73 14.3295C1076.73 15.875 1076.4 17.2045 1075.73 18.3182C1075.07 19.4242 1074.1 20.2727 1072.84 20.8636C1071.58 21.4545 1070.05 21.75 1068.27 21.75H1062.12V17.7955H1067.47C1068.41 17.7955 1069.19 17.6667 1069.81 17.4091C1070.43 17.1515 1070.9 16.7652 1071.2 16.25C1071.51 15.7348 1071.66 15.0947 1071.66 14.3295C1071.66 13.5568 1071.51 12.9053 1071.2 12.375C1070.9 11.8447 1070.43 11.4432 1069.8 11.1705C1069.18 10.8902 1068.4 10.75 1067.45 10.75H1064.13V30H1059.21ZM1071.78 19.4091L1077.56 30H1072.13L1066.47 19.4091H1071.78ZM1091.31 22.5682V12.5455H1096.15V30H1091.51V26.8295H1091.32C1090.93 27.8523 1090.27 28.6742 1089.36 29.2955C1088.45 29.9167 1087.34 30.2273 1086.03 30.2273C1084.86 30.2273 1083.84 29.9621 1082.95 29.4318C1082.06 28.9015 1081.37 28.1477 1080.87 27.1705C1080.38 26.1932 1080.13 25.0227 1080.12 23.6591V12.5455H1084.96V22.7955C1084.97 23.8258 1085.24 24.6402 1085.79 25.2386C1086.34 25.8371 1087.07 26.1364 1087.98 26.1364C1088.57 26.1364 1089.11 26.0038 1089.62 25.7386C1090.13 25.4659 1090.54 25.0644 1090.85 24.5341C1091.16 24.0038 1091.32 23.3485 1091.31 22.5682ZM1100.03 30V12.5455H1104.87V30H1100.03ZM1102.46 10.2955C1101.74 10.2955 1101.12 10.0568 1100.61 9.57954C1100.1 9.0947 1099.84 8.51515 1099.84 7.84091C1099.84 7.17424 1100.1 6.60227 1100.61 6.125C1101.12 5.64015 1101.74 5.39773 1102.46 5.39773C1103.18 5.39773 1103.79 5.64015 1104.3 6.125C1104.81 6.60227 1105.07 7.17424 1105.07 7.84091C1105.07 8.51515 1104.81 9.0947 1104.3 9.57954C1103.79 10.0568 1103.18 10.2955 1102.46 10.2955ZM1108.74 30V12.5455H1113.36V15.625H1113.56C1113.93 14.6023 1114.53 13.7955 1115.38 13.2045C1116.23 12.6136 1117.24 12.3182 1118.43 12.3182C1119.62 12.3182 1120.64 12.6174 1121.48 13.2159C1122.32 13.8068 1122.88 14.6098 1123.16 15.625H1123.35C1123.7 14.625 1124.35 13.8258 1125.28 13.2273C1126.22 12.6212 1127.33 12.3182 1128.61 12.3182C1130.24 12.3182 1131.56 12.8371 1132.57 13.875C1133.6 14.9053 1134.11 16.3674 1134.11 18.2614V30H1129.28V19.2159C1129.28 18.2462 1129.02 17.5189 1128.51 17.0341C1127.99 16.5492 1127.35 16.3068 1126.57 16.3068C1125.7 16.3068 1125.01 16.5871 1124.52 17.1477C1124.02 17.7008 1123.78 18.4318 1123.78 19.3409V30H1119.09V19.1136C1119.09 18.2576 1118.84 17.5758 1118.35 17.0682C1117.86 16.5606 1117.22 16.3068 1116.43 16.3068C1115.89 16.3068 1115.4 16.4432 1114.97 16.7159C1114.55 16.9811 1114.21 17.3561 1113.96 17.8409C1113.71 18.3182 1113.59 18.8788 1113.59 19.5227V30H1108.74ZM1146.41 18.3636C1146.41 15.5455 1146.78 12.9508 1147.53 10.5795C1148.29 8.20833 1149.44 6.01136 1151 3.98864H1155.62C1155.03 4.73864 1154.48 5.6553 1153.97 6.73864C1153.47 7.81439 1153.02 8.99621 1152.64 10.2841C1152.27 11.572 1151.97 12.9053 1151.76 14.2841C1151.55 15.6553 1151.44 17.0152 1151.44 18.3636C1151.44 20.1591 1151.62 21.9735 1151.99 23.8068C1152.36 25.6326 1152.86 27.3295 1153.49 28.8977C1154.12 30.4659 1154.83 31.75 1155.62 32.75H1151C1149.44 30.7273 1148.29 28.5303 1147.53 26.1591C1146.78 23.7879 1146.41 21.1894 1146.41 18.3636ZM1175.38 20.5114L1159.38 27.5568V22.9545L1170.33 18.5568L1170.18 18.7955V18.2273L1170.33 18.4659L1159.38 14.0682V9.46591L1175.38 16.5114V20.5114ZM1181.06 30L1190.7 10.9091V10.75H1179.47V6.72727H1195.8V10.8068L1186.14 30H1181.06ZM1207.36 30.3182C1205.75 30.3182 1204.32 30.0227 1203.06 29.4318C1201.81 28.8409 1200.82 28.0265 1200.08 26.9886C1199.35 25.9508 1198.96 24.7614 1198.93 23.4205H1203.71C1203.76 24.322 1204.14 25.053 1204.84 25.6136C1205.55 26.1742 1206.39 26.4545 1207.36 26.4545C1208.13 26.4545 1208.81 26.2841 1209.4 25.9432C1210 25.5947 1210.46 25.1136 1210.8 24.5C1211.14 23.8788 1211.31 23.1667 1211.31 22.3636C1211.31 21.5455 1211.14 20.8258 1210.79 20.2045C1210.45 19.5833 1209.97 19.0985 1209.37 18.75C1208.76 18.4015 1208.07 18.2235 1207.29 18.2159C1206.61 18.2159 1205.94 18.3561 1205.3 18.6364C1204.66 18.9167 1204.17 19.2992 1203.81 19.7841L1199.43 19L1200.54 6.72727H1214.76V10.75H1204.59L1203.99 16.5795H1204.13C1204.54 16.0038 1205.15 15.5265 1205.98 15.1477C1206.81 14.7689 1207.73 14.5795 1208.75 14.5795C1210.15 14.5795 1211.4 14.9091 1212.5 15.5682C1213.6 16.2273 1214.47 17.1326 1215.11 18.2841C1215.74 19.428 1216.06 20.7462 1216.05 22.2386C1216.06 23.8068 1215.69 25.2008 1214.96 26.4205C1214.23 27.6326 1213.21 28.5871 1211.9 29.2841C1210.6 29.9735 1209.08 30.3182 1207.36 30.3182ZM1230.4 16.4432V20.2841H1219.79V16.4432H1230.4ZM1244.61 6.72727V30H1239.68V11.3977H1239.55L1234.22 14.7386V10.375L1239.98 6.72727H1244.61ZM1250.14 30V26.4545L1258.42 18.7841C1259.13 18.1023 1259.72 17.4886 1260.19 16.9432C1260.68 16.3977 1261.05 15.8636 1261.3 15.3409C1261.55 14.8106 1261.67 14.2386 1261.67 13.625C1261.67 12.9432 1261.52 12.3561 1261.2 11.8636C1260.89 11.3636 1260.47 10.9811 1259.93 10.7159C1259.39 10.4432 1258.78 10.3068 1258.1 10.3068C1257.39 10.3068 1256.77 10.4508 1256.24 10.7386C1255.71 11.0265 1255.3 11.4394 1255.01 11.9773C1254.72 12.5152 1254.58 13.1553 1254.58 13.8977H1249.91C1249.91 12.375 1250.25 11.053 1250.94 9.93182C1251.63 8.81061 1252.6 7.94318 1253.84 7.32954C1255.08 6.71591 1256.52 6.40909 1258.14 6.40909C1259.8 6.40909 1261.25 6.70454 1262.49 7.29545C1263.73 7.87879 1264.7 8.68939 1265.39 9.72727C1266.08 10.7652 1266.42 11.9545 1266.42 13.2955C1266.42 14.1742 1266.25 15.0417 1265.9 15.8977C1265.56 16.7538 1264.95 17.7045 1264.07 18.75C1263.19 19.7879 1261.95 21.0341 1260.35 22.4886L1256.95 25.8182V25.9773H1266.73V30H1250.14ZM1278.79 30.3182C1277.19 30.3182 1275.75 30.0227 1274.5 29.4318C1273.25 28.8409 1272.25 28.0265 1271.52 26.9886C1270.79 25.9508 1270.4 24.7614 1270.37 23.4205H1275.14C1275.2 24.322 1275.58 25.053 1276.28 25.6136C1276.99 26.1742 1277.82 26.4545 1278.79 26.4545C1279.57 26.4545 1280.25 26.2841 1280.84 25.9432C1281.44 25.5947 1281.9 25.1136 1282.24 24.5C1282.58 23.8788 1282.75 23.1667 1282.75 22.3636C1282.75 21.5455 1282.57 20.8258 1282.22 20.2045C1281.88 19.5833 1281.41 19.0985 1280.8 18.75C1280.2 18.4015 1279.5 18.2235 1278.72 18.2159C1278.04 18.2159 1277.38 18.3561 1276.74 18.6364C1276.1 18.9167 1275.6 19.2992 1275.25 19.7841L1270.87 19L1271.97 6.72727H1286.2V10.75H1276.03L1275.43 16.5795H1275.57C1275.97 16.0038 1276.59 15.5265 1277.42 15.1477C1278.24 14.7689 1279.17 14.5795 1280.19 14.5795C1281.59 14.5795 1282.84 14.9091 1283.94 15.5682C1285.04 16.2273 1285.91 17.1326 1286.54 18.2841C1287.18 19.428 1287.49 20.7462 1287.49 22.2386C1287.49 23.8068 1287.13 25.2008 1286.39 26.4205C1285.67 27.6326 1284.65 28.5871 1283.34 29.2841C1282.04 29.9735 1280.52 30.3182 1278.79 30.3182ZM1299.12 18.3636C1299.12 21.1894 1298.74 23.7879 1297.99 26.1591C1297.24 28.5303 1296.08 30.7273 1294.53 32.75H1289.91C1290.5 32 1291.05 31.0833 1291.55 30C1292.06 28.9167 1292.5 27.7348 1292.88 26.4545C1293.26 25.1667 1293.56 23.8333 1293.77 22.4545C1293.98 21.0758 1294.09 19.7121 1294.09 18.3636C1294.09 16.5682 1293.9 14.7576 1293.53 12.9318C1293.17 11.0985 1292.67 9.40151 1292.03 7.84091C1291.4 6.27273 1290.69 4.98864 1289.91 3.98864H1294.53C1296.08 6.01136 1297.24 8.20833 1297.99 10.5795C1298.74 12.9508 1299.12 15.5455 1299.12 18.3636Z" fill="#454545"/>
<circle cx="927" cy="18" r="18" fill="#EE3608"/>
<path d="M1370.02 29V5.72727H1379.2C1380.97 5.72727 1382.47 6.06439 1383.72 6.73864C1384.96 7.4053 1385.91 8.33333 1386.56 9.52273C1387.22 10.7045 1387.55 12.0682 1387.55 13.6136C1387.55 15.1591 1387.21 16.5227 1386.55 17.7045C1385.88 18.8864 1384.91 19.8068 1383.65 20.4659C1382.39 21.125 1380.87 21.4545 1379.08 21.4545H1373.23V17.5114H1378.28C1379.23 17.5114 1380.01 17.3485 1380.62 17.0227C1381.25 16.6894 1381.71 16.2311 1382.01 15.6477C1382.32 15.0568 1382.48 14.3788 1382.48 13.6136C1382.48 12.8409 1382.32 12.1667 1382.01 11.5909C1381.71 11.0076 1381.25 10.5568 1380.62 10.2386C1380 9.91288 1379.22 9.75 1378.26 9.75H1374.94V29H1370.02ZM1398.32 29.3409C1396.53 29.3409 1394.98 28.9773 1393.69 28.25C1392.4 27.5152 1391.41 26.4773 1390.71 25.1364C1390.01 23.7879 1389.66 22.1932 1389.66 20.3523C1389.66 18.5568 1390.01 16.9811 1390.71 15.625C1391.41 14.2689 1392.39 13.2121 1393.65 12.4545C1394.93 11.697 1396.42 11.3182 1398.13 11.3182C1399.28 11.3182 1400.35 11.5038 1401.35 11.875C1402.35 12.2386 1403.22 12.7879 1403.96 13.5227C1404.71 14.2576 1405.29 15.1818 1405.71 16.2955C1406.13 17.4015 1406.34 18.697 1406.34 20.1818V21.5114H1391.6V18.5114H1401.78C1401.78 17.8144 1401.63 17.197 1401.32 16.6591C1401.02 16.1212 1400.6 15.7008 1400.06 15.3977C1399.53 15.0871 1398.91 14.9318 1398.21 14.9318C1397.48 14.9318 1396.82 15.1023 1396.26 15.4432C1395.7 15.7765 1395.26 16.2273 1394.94 16.7955C1394.62 17.3561 1394.46 17.9811 1394.45 18.6705V21.5227C1394.45 22.3864 1394.61 23.1326 1394.93 23.7614C1395.25 24.3902 1395.71 24.875 1396.3 25.2159C1396.89 25.5568 1397.59 25.7273 1398.4 25.7273C1398.94 25.7273 1399.43 25.6515 1399.88 25.5C1400.33 25.3485 1400.71 25.1212 1401.03 24.8182C1401.35 24.5152 1401.59 24.1439 1401.76 23.7045L1406.23 24C1406.01 25.0758 1405.54 26.0152 1404.84 26.8182C1404.14 27.6136 1403.24 28.2348 1402.13 28.6818C1401.03 29.1212 1399.76 29.3409 1398.32 29.3409ZM1396.28 9.29545L1398.69 4.125H1403.16L1399.7 9.29545H1396.28ZM1424.02 16.5227L1419.59 16.7955C1419.51 16.4167 1419.35 16.0758 1419.1 15.7727C1418.85 15.4621 1418.52 15.2159 1418.11 15.0341C1417.71 14.8447 1417.23 14.75 1416.66 14.75C1415.91 14.75 1415.28 14.9091 1414.77 15.2273C1414.25 15.5379 1413.99 15.9545 1413.99 16.4773C1413.99 16.8939 1414.16 17.2462 1414.49 17.5341C1414.83 17.822 1415.4 18.053 1416.21 18.2273L1419.37 18.8636C1421.07 19.2121 1422.33 19.7727 1423.16 20.5455C1424 21.3182 1424.41 22.3333 1424.41 23.5909C1424.41 24.7348 1424.08 25.7386 1423.4 26.6023C1422.74 27.4659 1421.82 28.1402 1420.65 28.625C1419.49 29.1023 1418.16 29.3409 1416.64 29.3409C1414.33 29.3409 1412.49 28.8598 1411.12 27.8977C1409.76 26.928 1408.96 25.6098 1408.72 23.9432L1413.48 23.6932C1413.63 24.3977 1413.98 24.9356 1414.53 25.3068C1415.08 25.6705 1415.79 25.8523 1416.65 25.8523C1417.5 25.8523 1418.18 25.6894 1418.7 25.3636C1419.22 25.0303 1419.49 24.6023 1419.49 24.0795C1419.49 23.6402 1419.3 23.2803 1418.94 23C1418.57 22.7121 1418.01 22.4924 1417.26 22.3409L1414.23 21.7386C1412.53 21.3977 1411.26 20.8068 1410.43 19.9659C1409.6 19.125 1409.19 18.053 1409.19 16.75C1409.19 15.6288 1409.49 14.6629 1410.1 13.8523C1410.71 13.0417 1411.57 12.4167 1412.68 11.9773C1413.79 11.5379 1415.09 11.3182 1416.59 11.3182C1418.79 11.3182 1420.52 11.7841 1421.79 12.7159C1423.06 13.6477 1423.8 14.9167 1424.02 16.5227ZM1441.99 16.5227L1437.55 16.7955C1437.48 16.4167 1437.32 16.0758 1437.07 15.7727C1436.82 15.4621 1436.49 15.2159 1436.08 15.0341C1435.68 14.8447 1435.19 14.75 1434.63 14.75C1433.88 14.75 1433.25 14.9091 1432.74 15.2273C1432.22 15.5379 1431.96 15.9545 1431.96 16.4773C1431.96 16.8939 1432.13 17.2462 1432.46 17.5341C1432.8 17.822 1433.37 18.053 1434.18 18.2273L1437.34 18.8636C1439.04 19.2121 1440.3 19.7727 1441.13 20.5455C1441.97 21.3182 1442.38 22.3333 1442.38 23.5909C1442.38 24.7348 1442.05 25.7386 1441.37 26.6023C1440.71 27.4659 1439.79 28.1402 1438.62 28.625C1437.46 29.1023 1436.13 29.3409 1434.61 29.3409C1432.3 29.3409 1430.46 28.8598 1429.09 27.8977C1427.72 26.928 1426.93 25.6098 1426.69 23.9432L1431.45 23.6932C1431.6 24.3977 1431.94 24.9356 1432.5 25.3068C1433.05 25.6705 1433.76 25.8523 1434.62 25.8523C1435.47 25.8523 1436.15 25.6894 1436.67 25.3636C1437.19 25.0303 1437.46 24.6023 1437.46 24.0795C1437.46 23.6402 1437.27 23.2803 1436.91 23C1436.54 22.7121 1435.98 22.4924 1435.22 22.3409L1432.2 21.7386C1430.5 21.3977 1429.23 20.8068 1428.39 19.9659C1427.57 19.125 1427.16 18.053 1427.16 16.75C1427.16 15.6288 1427.46 14.6629 1428.07 13.8523C1428.68 13.0417 1429.54 12.4167 1430.64 11.9773C1431.76 11.5379 1433.06 11.3182 1434.55 11.3182C1436.76 11.3182 1438.49 11.7841 1439.76 12.7159C1441.03 13.6477 1441.77 14.9167 1441.99 16.5227ZM1445.43 29V11.5455H1450.27V29H1445.43ZM1447.86 9.29545C1447.14 9.29545 1446.53 9.05682 1446.01 8.57954C1445.5 8.0947 1445.25 7.51515 1445.25 6.84091C1445.25 6.17424 1445.5 5.60227 1446.01 5.125C1446.53 4.64015 1447.14 4.39773 1447.86 4.39773C1448.58 4.39773 1449.2 4.64015 1449.7 5.125C1450.22 5.60227 1450.48 6.17424 1450.48 6.84091C1450.48 7.51515 1450.22 8.0947 1449.7 8.57954C1449.2 9.05682 1448.58 9.29545 1447.86 9.29545ZM1454.15 29V11.5455H1458.76V14.625H1458.97C1459.33 13.6023 1459.94 12.7955 1460.79 12.2045C1461.64 11.6136 1462.65 11.3182 1463.83 11.3182C1465.03 11.3182 1466.05 11.6174 1466.89 12.2159C1467.73 12.8068 1468.29 13.6098 1468.57 14.625H1468.75C1469.11 13.625 1469.75 12.8258 1470.68 12.2273C1471.62 11.6212 1472.73 11.3182 1474.01 11.3182C1475.64 11.3182 1476.96 11.8371 1477.98 12.875C1479 13.9053 1479.51 15.3674 1479.51 17.2614V29H1474.68V18.2159C1474.68 17.2462 1474.43 16.5189 1473.91 16.0341C1473.4 15.5492 1472.75 15.3068 1471.98 15.3068C1471.1 15.3068 1470.42 15.5871 1469.92 16.1477C1469.43 16.7008 1469.18 17.4318 1469.18 18.3409V29H1464.49V18.1136C1464.49 17.2576 1464.25 16.5758 1463.75 16.0682C1463.27 15.5606 1462.63 15.3068 1461.83 15.3068C1461.29 15.3068 1460.81 15.4432 1460.38 15.7159C1459.95 15.9811 1459.62 16.3561 1459.37 16.8409C1459.12 17.3182 1458.99 17.8788 1458.99 18.5227V29H1454.15ZM1488.32 29.3295C1487.2 29.3295 1486.21 29.1364 1485.34 28.75C1484.47 28.3561 1483.78 27.7765 1483.27 27.0114C1482.77 26.2386 1482.52 25.2765 1482.52 24.125C1482.52 23.1553 1482.7 22.3409 1483.05 21.6818C1483.41 21.0227 1483.89 20.4924 1484.51 20.0909C1485.12 19.6894 1485.82 19.3864 1486.6 19.1818C1487.39 18.9773 1488.21 18.8333 1489.08 18.75C1490.09 18.6439 1490.91 18.5455 1491.53 18.4545C1492.15 18.3561 1492.6 18.2121 1492.88 18.0227C1493.16 17.8333 1493.3 17.553 1493.3 17.1818V17.1136C1493.3 16.3939 1493.08 15.8371 1492.62 15.4432C1492.18 15.0492 1491.54 14.8523 1490.71 14.8523C1489.84 14.8523 1489.15 15.0455 1488.63 15.4318C1488.12 15.8106 1487.78 16.2879 1487.61 16.8636L1483.13 16.5C1483.36 15.4394 1483.81 14.5227 1484.47 13.75C1485.14 12.9697 1486 12.3712 1487.05 11.9545C1488.11 11.5303 1489.34 11.3182 1490.74 11.3182C1491.71 11.3182 1492.63 11.4318 1493.52 11.6591C1494.41 11.8864 1495.21 12.2386 1495.89 12.7159C1496.59 13.1932 1497.14 13.8068 1497.54 14.5568C1497.94 15.2992 1498.14 16.1894 1498.14 17.2273V29H1493.55V26.5795H1493.42C1493.14 27.125 1492.76 27.6061 1492.29 28.0227C1491.82 28.4318 1491.26 28.7538 1490.6 28.9886C1489.94 29.2159 1489.18 29.3295 1488.32 29.3295ZM1489.7 25.9886C1490.41 25.9886 1491.04 25.8485 1491.59 25.5682C1492.13 25.2803 1492.56 24.8939 1492.87 24.4091C1493.18 23.9242 1493.34 23.375 1493.34 22.7614V20.9091C1493.19 21.0076 1492.98 21.0985 1492.71 21.1818C1492.46 21.2576 1492.16 21.3295 1491.84 21.3977C1491.51 21.4583 1491.19 21.5152 1490.86 21.5682C1490.54 21.6136 1490.24 21.6553 1489.97 21.6932C1489.41 21.7765 1488.91 21.9091 1488.49 22.0909C1488.06 22.2727 1487.73 22.5189 1487.5 22.8295C1487.26 23.1326 1487.14 23.5114 1487.14 23.9659C1487.14 24.625 1487.38 25.1288 1487.86 25.4773C1488.35 25.8182 1488.96 25.9886 1489.7 25.9886ZM1510.38 17.3636C1510.38 14.5455 1510.75 11.9508 1511.5 9.57954C1512.26 7.20833 1513.41 5.01136 1514.97 2.98864H1519.59C1519 3.73864 1518.45 4.6553 1517.94 5.73864C1517.44 6.81439 1516.99 7.99621 1516.61 9.28409C1516.23 10.572 1515.94 11.9053 1515.73 13.2841C1515.52 14.6553 1515.41 16.0152 1515.41 17.3636C1515.41 19.1591 1515.59 20.9735 1515.95 22.8068C1516.33 24.6326 1516.83 26.3295 1517.45 27.8977C1518.09 29.4659 1518.8 30.75 1519.59 31.75H1514.97C1513.41 29.7273 1512.26 27.5303 1511.5 25.1591C1510.75 22.7879 1510.38 20.1894 1510.38 17.3636ZM1539.34 19.5114L1523.34 26.5568V21.9545L1534.3 17.5568L1534.15 17.7955V17.2273L1534.3 17.4659L1523.34 13.0682V8.46591L1539.34 15.5114V19.5114ZM1554.23 5.72727V29H1549.31V10.3977H1549.17L1543.84 13.7386V9.375L1549.61 5.72727H1554.23ZM1559.76 29V25.4545L1568.05 17.7841C1568.75 17.1023 1569.34 16.4886 1569.82 15.9432C1570.3 15.3977 1570.67 14.8636 1570.92 14.3409C1571.17 13.8106 1571.3 13.2386 1571.3 12.625C1571.3 11.9432 1571.14 11.3561 1570.83 10.8636C1570.52 10.3636 1570.09 9.98106 1569.56 9.71591C1569.02 9.44318 1568.41 9.30682 1567.73 9.30682C1567.02 9.30682 1566.39 9.45076 1565.86 9.73864C1565.33 10.0265 1564.92 10.4394 1564.64 10.9773C1564.35 11.5152 1564.2 12.1553 1564.2 12.8977H1559.53C1559.53 11.375 1559.88 10.053 1560.57 8.93182C1561.26 7.81061 1562.22 6.94318 1563.47 6.32954C1564.71 5.71591 1566.14 5.40909 1567.76 5.40909C1569.43 5.40909 1570.88 5.70454 1572.11 6.29545C1573.36 6.87879 1574.32 7.68939 1575.01 8.72727C1575.7 9.76515 1576.05 10.9545 1576.05 12.2955C1576.05 13.1742 1575.87 14.0417 1575.52 14.8977C1575.18 15.7538 1574.57 16.7045 1573.69 17.75C1572.81 18.7879 1571.58 20.0341 1569.98 21.4886L1566.58 24.8182V24.9773H1576.35V29H1559.76ZM1588.42 29.3182C1586.81 29.3182 1585.38 29.0227 1584.12 28.4318C1582.87 27.8409 1581.88 27.0265 1581.14 25.9886C1580.41 24.9508 1580.03 23.7614 1580 22.4205H1584.77C1584.82 23.322 1585.2 24.053 1585.91 24.6136C1586.61 25.1742 1587.45 25.4545 1588.42 25.4545C1589.19 25.4545 1589.87 25.2841 1590.46 24.9432C1591.06 24.5947 1591.53 24.1136 1591.86 23.5C1592.2 22.8788 1592.37 22.1667 1592.37 21.3636C1592.37 20.5455 1592.2 19.8258 1591.85 19.2045C1591.51 18.5833 1591.04 18.0985 1590.43 17.75C1589.82 17.4015 1589.13 17.2235 1588.35 17.2159C1587.67 17.2159 1587 17.3561 1586.36 17.6364C1585.72 17.9167 1585.23 18.2992 1584.87 18.7841L1580.5 18L1581.6 5.72727H1595.83V9.75H1585.66L1585.05 15.5795H1585.19C1585.6 15.0038 1586.22 14.5265 1587.04 14.1477C1587.87 13.7689 1588.79 13.5795 1589.82 13.5795C1591.22 13.5795 1592.47 13.9091 1593.57 14.5682C1594.66 15.2273 1595.53 16.1326 1596.17 17.2841C1596.8 18.428 1597.12 19.7462 1597.11 21.2386C1597.12 22.8068 1596.75 24.2008 1596.02 25.4205C1595.29 26.6326 1594.27 27.5871 1592.96 28.2841C1591.66 28.9735 1590.14 29.3182 1588.42 29.3182ZM1608.75 17.3636C1608.75 20.1894 1608.37 22.7879 1607.61 25.1591C1606.86 27.5303 1605.71 29.7273 1604.16 31.75H1599.53C1600.12 31 1600.67 30.0833 1601.18 29C1601.69 27.9167 1602.13 26.7348 1602.51 25.4545C1602.89 24.1667 1603.18 22.8333 1603.39 21.4545C1603.61 20.0758 1603.71 18.7121 1603.71 17.3636C1603.71 15.5682 1603.53 13.7576 1603.16 11.9318C1602.79 10.0985 1602.29 8.40151 1601.66 6.84091C1601.03 5.27273 1600.32 3.98864 1599.53 2.98864H1604.16C1605.71 5.01136 1606.86 7.20833 1607.61 9.57954C1608.37 11.9508 1608.75 14.5455 1608.75 17.3636Z" fill="#454545"/>
<circle cx="1339" cy="19" r="18" fill="#78206E"/>
</svg>
